# xmcd
# 
# Track frame offsets:
#     150
#     23995
#     35617
#     44607
#     58497
#     72455
#     85800
#     99250
#     112510
#     124485
#     140472
#     155437
#     183657
#     202140
#     239790
# 
# Disc length: 3713
# 
# Revision: 5
# Processed by: cddbd v1.5.2PL0 Copyright (c) Steve Scherf et al.
# Submitted via: BonkEnc v1.0.8
# 
DISCID=e30e7f0f
DTITLE=The Jon Spencer Blues Explosion - Orange (1994)
DYEAR=1994
DGENRE=Rock
TTITLE0=Bellbottoms
TTITLE1=Ditch
TTITLE2=Dang
TTITLE3=Very Rare
TTITLE4=Sweat
TTITLE5=Cowboy
TTITLE6=Orange
TTITLE7=Brenda
TTITLE8=Dissect
TTITLE9=Blues X Man
TTITLE10=Full Grown
TTITLE11=Flavor
TTITLE12=Greyhound
TTITLE13=Bellbottoms (Old Rascal Mix) (Japan Bonus)
TTITLE14=Flavor (Remix-Part 1 and 2) (Japan Bonus)
EXTD=YEAR: 1995
EXTT0=
EXTT1=
EXTT2=
EXTT3=
EXTT4=
EXTT5=
EXTT6=
EXTT7=
EXTT8=
EXTT9=
EXTT10=
EXTT11=
EXTT12=
EXTT13=
EXTT14=
PLAYORDER=
